<svg width="120" height="40" viewBox="0 0 120 40" xmlns="http://www.w3.org/2000/svg">
  <defs>
    <linearGradient id="denizGrad" x1="0%" y1="0%" x2="100%" y2="0%">
      <stop offset="0%" style="stop-color:#0891b2;stop-opacity:1" />
      <stop offset="100%" style="stop-color:#0284c7;stop-opacity:1" />
    </linearGradient>
  </defs>
  
  <rect width="120" height="40" fill="url(#denizGrad)" rx="4"/>
  
  <!-- Deniz harfleri -->
  <path d="M8 12 L8 28 L14 28 C18 28 18 22 18 20 C18 18 18 12 14 12 L8 12 Z M11 15 L13 15 C15 15 15 17 15 20 C15 23 15 25 13 25 L11 25 Z" fill="white"/>
  
  <rect x="20" y="12" width="6" height="2" fill="white"/>
  <rect x="20" y="26" width="6" height="2" fill="white"/>
  <rect x="20" y="12" width="2" height="16" fill="white"/>
  <rect x="20" y="18" width="4" height="2" fill="white"/>
  
  <!-- Yazı -->
  <text x="30" y="16" fill="white" font-family="Arial, sans-serif" font-size="7" font-weight="bold">DENİZBANK</text>
  <text x="30" y="26" fill="white" font-family="Arial, sans-serif" font-size="5">A.Ş.</text>
  
  <!-- Dalga logosu -->
  <path d="M90 15 Q95 10 100 15 Q105 20 110 15" fill="none" stroke="white" stroke-width="2"/>
  <path d="M90 20 Q95 15 100 20 Q105 25 110 20" fill="none" stroke="white" stroke-width="2"/>
  <path d="M90 25 Q95 20 100 25 Q105 30 110 25" fill="none" stroke="white" stroke-width="2"/>
</svg>