<svg width="140" height="35" viewBox="0 0 140 35" xmlns="http://www.w3.org/2000/svg">
  <defs>
    <linearGradient id="garantiBlue" x1="0%" y1="0%" x2="100%" y2="100%">
      <stop offset="0%" style="stop-color:#003F7F"/>
      <stop offset="100%" style="stop-color:#0066CC"/>
    </linearGradient>
  </defs>
  
  <!-- Garanti BBVA Logo -->
  <g transform="translate(3, 3)">
    <!-- Blue square background -->
    <rect x="0" y="0" width="28" height="28" fill="url(#garantiBlue)" rx="2"/>
    
    <!-- White G -->
    <path d="M10 8 C15 8 18 10 18 14 C18 18 15 20 10 20 C7 20 5 19 5 17 L7 17 C7 18 8 18 10 18 C13 18 16 17 16 14 C16 11 13 10 10 10 C8 10 6 11 6 13 L6 16 L12 16 L12 14 L8 14 L8 12 L14 12 L14 18 L4 18 L4 13 C4 10 6 8 10 8" fill="white" stroke="none"/>
    
    <!-- Text -->
    <g font-family="Arial, sans-serif" font-weight="bold">
      <text x="32" y="12" fill="url(#garantiBlue)" font-size="10">GARANTİ</text>
      <text x="80" y="12" fill="#FF6600" font-size="10">BBVA</text>
      <text x="32" y="22" fill="#666" font-size="7">BANKASI A.Ş.</text>
    </g>
  </g>
</svg>