<svg width="140" height="35" viewBox="0 0 140 35" xmlns="http://www.w3.org/2000/svg">
  <defs>
    <linearGradient id="ingOrange" x1="0%" y1="0%" x2="100%" y2="0%">
      <stop offset="0%" style="stop-color:#FF6600"/>
      <stop offset="100%" style="stop-color:#FF4400"/>
    </linearGradient>
  </defs>
  
  <!-- ING Bank Logo -->
  <g transform="translate(8, 5)">
    <!-- ING text -->
    <g font-family="Arial, sans-serif" font-weight="bold">
      <text x="0" y="16" fill="url(#ingOrange)" font-size="16">ING</text>
      <text x="0" y="24" fill="url(#ingOrange)" font-size="8">BANK</text>
    </g>
    
    <!-- Lion in circle -->
    <g transform="translate(75, -2)">
      <circle cx="12" cy="12.5" r="12" fill="url(#ingOrange)" stroke="#CC4400" stroke-width="0.5"/>
      
      <!-- Lion head -->
      <ellipse cx="12" cy="10" rx="7" ry="6" fill="white"/>
      <circle cx="9.5" cy="8" r="1.2" fill="url(#ingOrange)"/>
      <circle cx="14.5" cy="8" r="1.2" fill="url(#ingOrange)"/>
      <path d="M12 11 C10 12 10 14 12 13 C14 14 14 12 12 11" fill="url(#ingOrange)"/>
      
      <!-- Mane -->
      <path d="M5 7 C5 5 7 3 12 5 C17 3 19 5 19 7 C19 9 17 11 12 9 C7 11 5 9 5 7" fill="white"/>
      <circle cx="7" cy="6" r="1" fill="url(#ingOrange)"/>
      <circle cx="17" cy="6" r="1" fill="url(#ingOrange)"/>
    </g>
  </g>
</svg>