<svg width="120" height="40" viewBox="0 0 120 40" xmlns="http://www.w3.org/2000/svg">
  <defs>
    <linearGradient id="qnbGrad" x1="0%" y1="0%" x2="100%" y2="0%">
      <stop offset="0%" style="stop-color:#7c2d12;stop-opacity:1" />
      <stop offset="100%" style="stop-color:#a16207;stop-opacity:1" />
    </linearGradient>
  </defs>
  
  <rect width="120" height="40" fill="url(#qnbGrad)" rx="4"/>
  
  <!-- QNB harfleri -->
  <circle cx="12" cy="20" r="6" fill="none" stroke="white" stroke-width="2"/>
  <line x1="16" y1="24" x2="18" y2="26" stroke="white" stroke-width="2"/>
  
  <rect x="20" y="12" width="2" height="16" fill="white"/>
  <path d="M20 12 L26 28 L28 28 L28 12 L26 12 L23 20 L23 12" fill="white"/>
  
  <rect x="30" y="12" width="6" height="2" fill="white"/>
  <rect x="30" y="26" width="6" height="2" fill="white"/>
  <rect x="30" y="12" width="2" height="16" fill="white"/>
  <rect x="30" y="18" width="4" height="2" fill="white"/>
  
  <!-- Yazı -->
  <text x="40" y="14" fill="white" font-family="Arial, sans-serif" font-size="6" font-weight="bold">QNB</text>
  <text x="40" y="22" fill="white" font-family="Arial, sans-serif" font-size="5">FİNANSBANK</text>
  <text x="40" y="28" fill="white" font-family="Arial, sans-serif" font-size="4">A.Ş.</text>
  
  <!-- Logo -->
  <rect x="90" y="8" width="22" height="24" fill="white" opacity="0.9" rx="2"/>
  <rect x="92" y="10" width="18" height="20" fill="url(#qnbGrad)" rx="1"/>
  <text x="101" y="22" text-anchor="middle" fill="white" font-family="Arial, sans-serif" font-size="6" font-weight="bold">QNB</text>
</svg>