<svg width="120" height="40" viewBox="0 0 120 40" xmlns="http://www.w3.org/2000/svg">
  <defs>
    <linearGradient id="tebGrad" x1="0%" y1="0%" x2="100%" y2="0%">
      <stop offset="0%" style="stop-color:#1e40af;stop-opacity:1" />
      <stop offset="100%" style="stop-color:#3b82f6;stop-opacity:1" />
    </linearGradient>
  </defs>
  
  <rect width="120" height="40" fill="url(#tebGrad)" rx="4"/>
  
  <!-- TEB harfleri -->
  <rect x="8" y="12" width="8" height="3" fill="white"/>
  <rect x="10" y="12" width="3" height="16" fill="white"/>
  
  <rect x="16" y="12" width="3" height="16" fill="white"/>
  <rect x="16" y="12" width="6" height="3" fill="white"/>
  <rect x="16" y="18" width="5" height="3" fill="white"/>
  <rect x="16" y="25" width="6" height="3" fill="white"/>
  
  <rect x="25" y="12" width="6" height="3" fill="white"/>
  <rect x="25" y="25" width="6" height="3" fill="white"/>
  <rect x="25" y="12" width="3" height="16" fill="white"/>
  <rect x="25" y="18" width="5" height="3" fill="white"/>
  
  <!-- Yazı -->
  <text x="35" y="16" fill="white" font-family="Arial, sans-serif" font-size="8" font-weight="bold">TEB</text>
  <text x="35" y="26" fill="white" font-family="Arial, sans-serif" font-size="6">BANK</text>
  
  <!-- Logo -->
  <circle cx="100" cy="20" r="12" fill="white" opacity="0.9"/>
  <circle cx="100" cy="20" r="8" fill="url(#tebGrad)"/>
  <text x="100" y="24" text-anchor="middle" fill="white" font-family="Arial, sans-serif" font-size="6" font-weight="bold">TEB</text>
</svg>