<svg width="140" height="35" viewBox="0 0 140 35" xmlns="http://www.w3.org/2000/svg">
  <defs>
    <clipPath id="clip0_vakif">
      <rect width="120" height="40" fill="white"/>
    </clipPath>
  </defs>
  
  <!-- White background for better visibility -->
  <rect width="120" height="40" fill="white" rx="4" stroke="#e2e8f0" stroke-width="1"/>
  
  <g clip-path="url(#clip0_vakif)" transform="scale(0.48) translate(0, 4)">
    <path d="M4.11515 8.76993L0 31.693C3.61411 31.693 27.424 31.693 27.3718 31.693H28.9224C37.4471 31.6488 42.3601 29.6129 43.2506 23.0606C43.8466 18.6401 40.1921 15.7962 37.2049 15.2019C40.2254 14.6174 43.8941 13.527 44.6587 8.92465C45.231 5.4717 42.2319 0.660645 34.0657 0.660645H13.7726C8.20892 0.660645 4.72541 4.70546 4.10802 8.78221" fill="#FDB913"/>
    <path d="M21.3166 8.89026C20.2813 10.2189 14.1929 17.3041 9.76665 22.7929C10.7165 18.252 12.3787 8.5317 13.8628 6.53508C14.7341 5.3662 15.9819 4.55931 17.3795 4.26094C17.3795 4.26094 9.6408 1.9647 7.40632 11.6654C6.58709 15.2313 4.06291 27.8741 4.06291 27.8889C4.1104 27.9945 11.1154 28.6035 14.5111 24.5096C16.0284 22.6775 23.5511 13.0407 25.617 10.2655C29.9624 4.40093 32.6576 4.01536 32.6576 4.01536C32.6576 4.01536 25.7357 3.23193 21.3166 8.90254" fill="white"/>
    <path d="M70.4205 31.6906L86.4561 0.648347H80.8592L69.1003 24.9983L66.0466 0.648347H59.7159L65.1466 31.6906H70.4205ZM95.2206 19.4873L93.5204 29.2519C92.35 29.3382 91.1755 29.3497 90.0037 29.2863C87.2824 29.2273 84.9055 28.0387 85.3353 25.1113C85.9242 21.0861 89.6095 19.9269 95.2206 19.4775V19.4873ZM101.221 16.6533C102.238 10.8992 98.0369 8.72325 92.9387 8.72325C89.6143 8.72325 87.7455 9.17022 85.7698 10.0298L84.1076 13.468C86.5415 12.385 89.1488 12.0657 91.3358 12.0657C94.3658 12.0657 96.3913 12.9793 95.8831 15.8797L95.6694 17.0732C87.4106 17.5644 80.7499 19.5561 79.8856 25.1186C79.2611 29.1291 83.2456 31.9951 89.8588 31.9951C93.2948 31.9951 96.2702 31.8232 98.5569 31.6414L101.221 16.6533ZM116.117 19.5733L126.86 9.3495H120.923L110.805 19.5586L114.163 0.648347H108.578L103.057 31.6906H108.668L110.696 20.1774L117.397 31.6611H123.967L116.117 19.5733ZM131.457 31.6611L135.415 9.3495H130.127L126.173 31.6611H131.457ZM155.739 1.55948C156.402 0.862008 157.546 0.508363 157.546 0.508363C150.999 -1.07567 143.881 1.12233 142.757 6.66769L142.282 9.35441H138.645L138.075 12.5839H141.708L138.326 31.666H143.899L147.281 12.5839H151.508L152.097 9.35441H147.86L148.174 7.66477C148.684 4.80614 149.622 2.12187 154.937 3.03545C155.076 2.47805 155.358 1.96936 155.751 1.56193L155.739 1.55948ZM172.774 8.81412C172.204 12.0068 169.854 13.9076 163.67 13.7259C161.889 13.6841 161.457 13.5761 161.457 13.5761L163.193 3.83607C164.418 3.33229 165.729 3.08842 167.047 3.11895C171.248 3.11895 173.442 5.01734 172.774 8.81166V8.81412ZM161.02 16.5403L162.73 16.4789C169.678 16.2333 171.727 19.2049 170.941 23.1343C170.181 26.9065 167.118 28.4807 162.96 28.4807C161.232 28.4807 160.327 28.4807 158.826 28.4021L161.02 16.5403ZM178.751 8.52678C179.342 4.97314 176.108 0.0171882 167.693 0.0171882C163.49 0.0171882 157.793 1.03637 157.188 4.40829L152.4 31.6685C155.29 32.0221 158.126 32.0147 162.53 31.9853C171.316 31.9386 176.381 29.8413 177.3 23.095C177.915 18.5516 174.147 15.6218 171.067 14.9906C174.18 14.3889 177.965 13.2715 178.751 8.53169V8.52678ZM194.352 19.4873L192.642 29.2519C191.472 29.3384 190.298 29.3499 189.126 29.2863C186.402 29.2273 184.03 28.0387 184.467 25.1113C185.046 21.0861 188.741 19.9269 194.352 19.4775V19.4873ZM200.343 16.6533C201.364 10.9163 197.166 8.74044 192.061 8.74044C188.736 8.74044 186.837 9.18004 184.854 10.0371L183.227 13.4754C185.668 12.4071 188.276 12.0657 190.463 12.0657C193.485 12.0657 195.525 12.9793 195.008 15.8797L194.794 17.0732C186.542 17.5644 179.877 19.5561 179.012 25.1186C178.395 29.1291 182.377 31.9951 188.986 31.9951C192.429 31.9951 195.397 31.8232 197.686 31.6414L200.343 16.6533ZM224.766 15.8035C225.407 12.1959 223.434 8.96393 215.704 8.96393C211.342 8.96393 208.125 9.70069 205.494 10.683L201.749 31.6734H207.415L210.725 12.94C212.052 12.3955 213.472 12.1341 214.899 12.1713C218.592 12.1713 219.511 14.0157 219.188 15.8404L216.384 31.6906H221.888L224.766 15.8035ZM233.96 19.4873L233.858 19.4628L237.197 0.648347H231.605L226.093 31.6513H231.709L233.718 20.3125H233.806L240.429 31.6906H246.997L239.16 19.6126L249.905 9.38879H243.957L233.96 19.4873Z" fill="#1F1D0B"/>
  </g>
</svg>