<svg width="120" height="40" viewBox="0 0 120 40" xmlns="http://www.w3.org/2000/svg">
  <defs>
    <linearGradient id="ykGrad" x1="0%" y1="0%" x2="100%" y2="0%">
      <stop offset="0%" style="stop-color:#0f172a;stop-opacity:1" />
      <stop offset="100%" style="stop-color:#334155;stop-opacity:1" />
    </linearGradient>
  </defs>
  
  <rect width="120" height="40" fill="url(#ykGrad)" rx="4"/>
  
  <!-- YK harfleri -->
  <path d="M8 12 L10 12 L12 18 L14 12 L16 12 L13 20 L13 28 L11 28 L11 20 Z" fill="#fbbf24"/>
  <rect x="18" y="12" width="3" height="16" fill="#fbbf24"/>
  <rect x="18" y="18" width="8" height="3" fill="#fbbf24"/>
  <path d="M22 12 L26 12 L22 18 L26 18" fill="#fbbf24"/>
  
  <!-- Yazı -->
  <text x="30" y="14" fill="#fbbf24" font-family="Arial, sans-serif" font-size="6" font-weight="bold">YAPI KREDİ</text>
  <text x="30" y="22" fill="white" font-family="Arial, sans-serif" font-size="5">BANKASI</text>
  <text x="30" y="28" fill="white" font-family="Arial, sans-serif" font-size="4">A.Ş.</text>
  
  <!-- Logo -->
  <rect x="90" y="10" width="20" height="20" fill="#fbbf24" rx="2"/>
  <rect x="92" y="12" width="16" height="16" fill="url(#ykGrad)" rx="1"/>
  <text x="100" y="22" text-anchor="middle" fill="#fbbf24" font-family="Arial, sans-serif" font-size="6" font-weight="bold">YK</text>
</svg>